# xmcd
#
# Track frame offsets:
#	150
#	33182
#	44236
#	68188
#	81765
#	113147
#	131744
#	147699
#	170095
#	188726
#	201046
#	232109
#	249875
#	267134
#	276880
#	299425
#	322933
#
# Disc length: 4565 seconds
#
# Revision: 1
# Processed by: cddbd v1.5.2PL0 Copyright (c) Steve Scherf et al.
# Submitted via: audiograbber 1.83.01
#
DISCID=0711d311
DTITLE=The Allman Brothers Band - Collected [CD1]
DYEAR=2012
DGENRE=Blues
TTITLE0=Dreams
TTITLE1=Don't Want You No More
TTITLE2=Whipping Post
TTITLE3=Midnight Rider
TTITLE4=In Memory Of Elizabeth Reed
TTITLE5=Revival
TTITLE6=Don't Keep Me Wonderin'
TTITLE7=Hoochie Coochie Man
TTITLE8=Statesboro Blues
TTITLE9=One More Ride
TTITLE10=Drunken Hearted Boy (Live)
TTITLE11=Melissa
TTITLE12=Trouble No More
TTITLE13=Little Martha
TTITLE14=One Way Out
TTITLE15=Blue Sky
TTITLE16=Wasted Words
EXTD=
EXTT0=
EXTT1=
EXTT2=
EXTT3=
EXTT4=
EXTT5=
EXTT6=
EXTT7=
EXTT8=
EXTT9=
EXTT10=
EXTT11=
EXTT12=
EXTT13=
EXTT14=
EXTT15=
EXTT16=
PLAYORDER=
